<?xml version="1.0" encoding="UTF-8" standalone="no"?>
<!-- Created with Inkscape (http://www.inkscape.org/) -->

<svg
   width="200"
   height="200"
   viewBox="0 0 52.916665 52.916666"
   version="1.1"
    id="svg1"
   role="image"
   
   xmlns="http://www.w3.org/2000/svg"
  ><g
    
     id="layer1"><g
       id="g3"
       transform="matrix(0.26458333,0,0,0.26458333,9.8202489,8.0706967)"><circle
         cx="64"
         cy="64"
         r="64"
         fill="#8993a4"
         id="circle1" /><g
         id="g2"><path
           fill="#ffffff"
           d="M 103,102.1388 C 93.094,111.92 79.3504,118 64.1638,118 48.8056,118 34.9294,111.768 25,101.7892 V 95.2 C 25,86.8096 31.981,80 40.6,80 h 46.8 c 8.619,0 15.6,6.8096 15.6,15.2 z"
           id="path1" /><path
           fill="#ffffff"
           d="M 63.996165,24 C 51.293814,24 41,34.293814 41,46.996165 41,59.706186 51.293814,70 63.996165,70 76.698516,70 87,59.706186 87,46.996165 87,34.293814 76.698516,24 63.996165,24"
           id="path2" /></g></g></g></svg>
